<svg xmlns="http://www.w3.org/2000/svg" width="66.09" height="66" viewBox="0 0 66.09 66"><defs><style>.cls-1{fill-rule:evenodd}</style></defs><path id="Design" class="cls-1" d="M1295.08 3399.3l-12.71 12.69-20.88-20.86 1.91-1.9 18.97 18.95 8.89-8.88-.87-.87-1.75 1.74-1.9-1.91 1.74-1.74-2.14-2.14-3.1 3.09-1.9-1.9 3.09-3.09-2.14-2.14-1.75 1.74-1.9-1.9 1.74-1.75-2.14-2.14-3.1 3.1-1.9-1.91 3.09-3.09-2.14-2.14-1.75 1.74-1.9-1.9 2.7-2.7v.01l.96-.96zm-5.02-38.99l-46.65 46.59a1.34 1.34 0 0 1-.61.35l-10.11 2.7a1.024 1.024 0 0 1-.35.05 1.345 1.345 0 0 1-1.3-1.7l2.71-10.09a1.34 1.34 0 0 1 .35-.61l16.93-16.91-22.03-22 12.71-12.69 22.03 22 17.01-16.98h.01l1.11-1.11a6.565 6.565 0 1 1 9.29 9.28l-1.11 1.11-7.39-7.38-46.4 46.33v.02l5.48 5.47h.01l46.4-46.33zm-37.12 18.48l7.15-7.14-1.7-1.7 1.74-1.74-2.14-2.14-3.09 3.09-1.91-1.9 3.09-3.09-2.14-2.14-1.74 1.74-1.91-1.9 1.74-1.75-2.14-2.14-3.09 3.1-1.91-1.91 3.09-3.09-2.14-2.14-1.74 1.74-1.91-1.9 1.74-1.75-2.22-2.22-8.89 8.88z" transform="translate(-1229 -3346)"/></svg>