<svg xmlns="http://www.w3.org/2000/svg" width="15" height="13" viewBox="0 0 15 13"><filter filterUnits="objectBoundingBox" x="0" y="0" width="100" height="100" id="a"><feFlood flood-color="#6B6B6B" result="coFloodOut1"/><feComposite in="coFloodOut1" in2="SourceAlpha" operator="in" result="coOverlay1"/><feBlend in="coOverlay1" in2="SourceGraphic" result="colorOverlay1"/></filter><path d="M13.4 12.96c-.12.02-.23.03-.34.03-.74 0-1.53-.41-2.36-1.22-.72-.71-1.46-1.05-2.2-1.02-1.14.05-1.93.99-1.94 1l-.54-.44c.04-.05.99-1.17 2.44-1.25.95-.04 1.87.37 2.74 1.22.78.77 1.48 1.11 2.07 1.01.72-.13 1.09-.9 1.09-.91l.64.29c-.02.04-.52 1.1-1.6 1.29zm-1.31-8.58l-.01-.01-8.25 8.13H0V8.62L8.17.52 8.14.49 8.63 0l.03.03.03-.03.53.49-.05.04 2.92 2.87.5.48-.01.01h.01l-.5.49zM.7 11.81h2.84l6.32-6.22-2.91-2.86L.7 8.91v2.9zM8.68 1.02L7.44 2.24l2.91 2.87 1.24-1.22-2.91-2.87z" fill="#FFF" filter="url(#a)"/></svg>