<svg xmlns="http://www.w3.org/2000/svg" width="81" height="81" viewBox="0 0 81 81"><defs><style>.cls-1{fill-rule:evenodd}</style></defs><path id="Compas" class="cls-1" d="M1259.5 3731a40.5 40.5 0 1 0 40.5 40.5 40.548 40.548 0 0 0-40.5-40.5zm1.62 77.72v-1.58a1.62 1.62 0 1 0-3.24 0v1.58a37.3 37.3 0 0 1-35.6-35.6h1.58a1.62 1.62 0 1 0 0-3.24h-1.58a37.3 37.3 0 0 1 35.6-35.6v1.58a1.62 1.62 0 1 0 3.24 0v-1.58a37.3 37.3 0 0 1 35.6 35.6h-1.58a1.62 1.62 0 0 0 0 3.24h1.58a37.3 37.3 0 0 1-35.6 35.6zm17.96-58.91l-24.53 16.31a1.6 1.6 0 0 0-.43.43l-16.31 24.53a1.527 1.527 0 0 0 1.27 2.37 1.536 1.536 0 0 0 .84-.26l24.53-16.31a1.6 1.6 0 0 0 .43-.43l16.31-24.53a1.522 1.522 0 0 0-2.11-2.11zm-22.59 18.68l6.02 6.02-17.96 11.94z" transform="translate(-1219 -3731)"/></svg>