<svg xmlns="http://www.w3.org/2000/svg" width="13" height="13" viewBox="0 0 13 13"><filter filterUnits="objectBoundingBox" x="0" y="0" width="100" height="100" id="a"><feFlood flood-color="#6B6B6B" result="coFloodOut1"/><feComposite in="coFloodOut1" in2="SourceAlpha" operator="in" result="coOverlay1"/><feBlend in="coOverlay1" in2="SourceGraphic" result="colorOverlay1"/></filter><path d="M0 13v-.27-.81-9.75-.27-.82h2.44V0h.54v1.08h7.04V0h.54v1.08H13V13H0zM12.46 1.62h-1.9v.55h-.54v-.55H2.98v.55h-.54v-.55H.54v2.17h11.92V1.62zm0 2.71H.54v8.13h11.92V4.33zM3.25 8.67H2.17V7.58h1.08v1.09zm0 1.89H2.17V9.48h1.08v1.08zm1.9-3.79H4.06V5.69h1.09v1.08zm0 1.9H4.06V7.58h1.09v1.09zm0 1.89H4.06V9.48h1.09v1.08zm1.89-3.79H5.96V5.69h1.08v1.08zm0 1.9H5.96V7.58h1.08v1.09zm0 1.89H5.96V9.48h1.08v1.08zm1.9-3.79H7.85V5.69h1.09v1.08zm0 1.9H7.85V7.58h1.09v1.09zm0 1.89H7.85V9.48h1.09v1.08zm1.89-3.79H9.75V5.69h1.08v1.08zm0 1.9H9.75V7.58h1.08v1.09z" fill="#FFF" filter="url(#a)"/></svg>