<svg xmlns="http://www.w3.org/2000/svg" width="47" height="35" viewBox="0 0 47 35"><path class="cls-1" d="M23.5 35C7.83 35 0 17.5 0 17.5S7.83 0 23.5 0C40.15 0 47 17.5 47 17.5S39.17 35 23.5 35zm0-33.06C11.1 1.94 3.88 14.22 2.18 17.5c1.71 3.26 8.96 15.55 21.32 15.55 12.46 0 19.68-12.39 21.34-15.59-1.5-3.2-8.15-15.52-21.34-15.52zm0 21.39a5.86 5.86 0 0 1-5.88-5.83 5.94 5.94 0 0 1 .17-1.35 2.5 2.5 0 0 0 1.3.38 2.437 2.437 0 0 0 2.45-2.43 2.4 2.4 0 0 0-.77-1.76 5.841 5.841 0 1 1 2.73 10.99zm0-9.72h-.03a3.908 3.908 0 0 1 .03.49 4.387 4.387 0 0 1-3.8 4.33 3.913 3.913 0 1 0 3.8-4.82z"/></svg>