<svg xmlns="http://www.w3.org/2000/svg" width="73" height="74" viewBox="0 0 73 74"><defs><style>.cls-1{fill-rule:evenodd}</style></defs><path id="Password2" class="cls-1" d="M1619.9 3561.45a25.075 25.075 0 0 0-7.45-14.78c-4.88-4.95-10.74-7.67-16.51-7.67a18.844 18.844 0 0 0-13.57 5.95 19.165 19.165 0 0 0-5.78 15.71 23.178 23.178 0 0 0 3.66 10.05l-19.3 19.56-2.46-2.49a3.686 3.686 0 0 0-2.64-1.25c-1.66 0-2.91 1.27-4.24 2.61l-2.01 2.05c-1.33 1.34-2.59 2.62-2.59 4.3a3.809 3.809 0 0 0 1.22 2.68l2.47 2.5-1.94 1.96a6.145 6.145 0 0 0 .01 8.6 5.951 5.951 0 0 0 8.47 0l31.48-31.92a21.56 21.56 0 0 0 11.84 3.8 18.815 18.815 0 0 0 13.57-5.96 19.074 19.074 0 0 0 5.77-15.7zm-69.6 34.63a1.174 1.174 0 0 1-.37-.58c0-.46 1-1.48 1.74-2.22l2.01-2.04c.72-.74 1.72-1.75 2.17-1.75a1.089 1.089 0 0 1 .57.38l2.47 2.5-6.13 6.21zm4.88 13.05a3.051 3.051 0 0 1-4.35 0 3.139 3.139 0 0 1 0-4.4l31.16-31.6a29.882 29.882 0 0 0 2.07 2.32c.73.74 1.5 1.44 2.28 2.09zm56.88-34.07a15.987 15.987 0 0 1-11.5 5.09c-4.99 0-10.12-2.41-14.44-6.8a22.17 22.17 0 0 1-6.62-12.99 16.179 16.179 0 0 1 4.94-13.31 15.987 15.987 0 0 1 11.5-5.09c4.99 0 10.12 2.41 14.44 6.8a22.17 22.17 0 0 1 6.62 12.99 16.191 16.191 0 0 1-4.94 13.31zm-5.24-22.69c-3.12-3.16-6.8-4.91-10.35-4.91a11.115 11.115 0 0 0-8.08 3.59 11.443 11.443 0 0 0-3.49 9.36 15.991 15.991 0 0 0 4.78 9.33c3.13 3.16 6.8 4.9 10.35 4.9a11.077 11.077 0 0 0 8.08-3.59 11.412 11.412 0 0 0 3.49-9.35 15.962 15.962 0 0 0-4.78-9.33zm-.77 16.59a8.311 8.311 0 0 1-6.02 2.72c-2.77 0-5.71-1.43-8.28-4.03a13.048 13.048 0 0 1-3.94-7.55 8.494 8.494 0 0 1 2.64-6.95 8.323 8.323 0 0 1 6.02-2.73c2.77 0 5.71 1.44 8.28 4.05a12.943 12.943 0 0 1 3.94 7.53 8.514 8.514 0 0 1-2.64 6.96z" transform="translate(-1547 -3539)"/></svg>