<?xml version="1.0" encoding="utf-8"?>
<svg xmlns="http://www.w3.org/2000/svg"
	xmlns:xlink="http://www.w3.org/1999/xlink"
	width="15px" height="13px" viewBox="0 0 15 13">
<filter filterUnits="objectBoundingBox" x="0.00" y="0.00" width="100.00" height="100.00" id="filter0">
<feFlood flood-color="rgb(107,107,107)" result="coFloodOut1"/>
<feComposite in="coFloodOut1" in2="SourceAlpha" operator="in" result="coOverlay1"/>
<feBlend in="coOverlay1" in2="SourceGraphic" mode="normal" result="colorOverlay1"/>
</filter>
<path fillRule="evenodd" d="M 13.4 12.96C 13.28 12.98 13.17 12.99 13.06 12.99 12.32 12.99 11.53 12.58 10.7 11.77 9.98 11.06 9.24 10.72 8.5 10.75 7.36 10.8 6.57 11.74 6.56 11.75 6.56 11.75 6.02 11.31 6.02 11.31 6.06 11.26 7.01 10.14 8.46 10.06 9.41 10.02 10.33 10.43 11.2 11.28 11.98 12.05 12.68 12.39 13.27 12.29 13.99 12.16 14.36 11.39 14.36 11.38 14.36 11.38 15 11.67 15 11.67 14.98 11.71 14.48 12.77 13.4 12.96ZM 12.09 4.38C 12.09 4.38 12.08 4.37 12.08 4.37 12.08 4.37 3.83 12.5 3.83 12.5 3.83 12.5-0 12.5-0 12.5-0 12.5-0 8.62-0 8.62-0 8.62 8.17 0.52 8.17 0.52 8.17 0.52 8.14 0.49 8.14 0.49 8.14 0.49 8.63-0 8.63-0 8.63-0 8.66 0.03 8.66 0.03 8.66 0.03 8.69-0 8.69-0 8.69-0 9.22 0.49 9.22 0.49 9.22 0.49 9.17 0.53 9.17 0.53 9.17 0.53 12.09 3.4 12.09 3.4 12.09 3.4 12.09 3.4 12.09 3.4 12.09 3.4 12.59 3.88 12.59 3.88 12.59 3.88 12.58 3.89 12.58 3.89 12.58 3.89 12.59 3.89 12.59 3.89 12.59 3.89 12.09 4.38 12.09 4.38ZM 0.7 11.81C 0.7 11.81 3.54 11.81 3.54 11.81 3.54 11.81 9.86 5.59 9.86 5.59 9.86 5.59 6.95 2.73 6.95 2.73 6.95 2.73 0.7 8.91 0.7 8.91 0.7 8.91 0.7 11.81 0.7 11.81ZM 8.68 1.02C 8.68 1.02 7.44 2.24 7.44 2.24 7.44 2.24 10.35 5.11 10.35 5.11 10.35 5.11 11.59 3.89 11.59 3.89 11.59 3.89 8.68 1.02 8.68 1.02Z" fill="rgb(255,255,255)" filter="url(#filter0)"/></svg>