<svg version="1.1" xmlns="http://www.w3.org/2000/svg" xmlns:xlink="http://www.w3.org/1999/xlink" x="0px" y="0px" viewBox="0 0 48 48" width="48" height="48">
<path d="M31,18c2.762,0,5-2.239,5-5c0-2.761-2.238-5-5-5c-2.762,0-5,2.239-5,5
C26,15.761,28.238,18,31,18z M31,10c1.658,0,3,1.343,3,3c0,1.657-1.342,3-3,3s-3-1.343-3-3C28,11.343,29.342,10,31,10z M19,28.414
l13.293,13.293l1.414-1.414L24.914,31.5L31,25.414l9.293,9.293l1.414-1.414L31,22.586l-7.5,7.5l-4.5-4.5L6.293,38.293l1.414,1.414
L19,28.414z"/>
</svg>
