<svg xmlns="http://www.w3.org/2000/svg" width="73" height="73" viewBox="0 0 73 73">
  <defs>
    <style>
      .cls-1 {
        fill-rule: evenodd;
      }
    </style>
  </defs>
  <path id="Sent" class="cls-1" d="M1296.49,3540.51a1.732,1.732,0,0,0-1.92-.37l-69.52,29.9a1.744,1.744,0,0,0-1.05,1.55,1.725,1.725,0,0,0,.96,1.6l25.89,12.95,12.97,25.9a1.733,1.733,0,0,0,1.55.96h0.05a1.744,1.744,0,0,0,1.55-1.05l29.89-69.53A1.737,1.737,0,0,0,1296.49,3540.51Zm-66.63,31.24,57.77-24.84-35.82,35.82Zm35.39,35.39-10.98-21.95,35.82-35.82Z" transform="translate(-1224 -3540)"/>
</svg>
