<?xml version="1.0" encoding="utf-8"?>
<svg xmlns="http://www.w3.org/2000/svg"
	xmlns:xlink="http://www.w3.org/1999/xlink"
	width="13px" height="13px" viewBox="0 0 13 13">
<filter filterUnits="objectBoundingBox" x="0.00" y="0.00" width="100.00" height="100.00" id="filter0">
<feFlood flood-color="rgb(107,107,107)" result="coFloodOut1"/>
<feComposite in="coFloodOut1" in2="SourceAlpha" operator="in" result="coOverlay1"/>
<feBlend in="coOverlay1" in2="SourceGraphic" mode="normal" result="colorOverlay1"/>
</filter>
<path fillRule="evenodd" d="M-0 13C-0 13-0 12.73-0 12.73-0 12.73-0 11.92-0 11.92-0 11.92-0 2.17-0 2.17-0 2.17-0 1.9-0 1.9-0 1.9-0 1.08-0 1.08-0 1.08 2.44 1.08 2.44 1.08 2.44 1.08 2.44-0 2.44-0 2.44-0 2.98-0 2.98-0 2.98-0 2.98 1.08 2.98 1.08 2.98 1.08 10.02 1.08 10.02 1.08 10.02 1.08 10.02-0 10.02-0 10.02-0 10.56-0 10.56-0 10.56-0 10.56 1.08 10.56 1.08 10.56 1.08 13 1.08 13 1.08 13 1.08 13 1.9 13 1.9 13 1.9 13 2.17 13 2.17 13 2.17 13 3.52 13 3.52 13 3.52 13 4.6 13 4.6 13 4.6 13 12.46 13 12.46 13 12.46 13 13 13 13 13 13-0 13-0 13ZM 12.46 1.62C 12.46 1.62 10.56 1.62 10.56 1.62 10.56 1.62 10.56 2.17 10.56 2.17 10.56 2.17 10.02 2.17 10.02 2.17 10.02 2.17 10.02 1.62 10.02 1.62 10.02 1.62 2.98 1.62 2.98 1.62 2.98 1.62 2.98 2.17 2.98 2.17 2.98 2.17 2.44 2.17 2.44 2.17 2.44 2.17 2.44 1.62 2.44 1.62 2.44 1.62 0.54 1.62 0.54 1.62 0.54 1.62 0.54 3.79 0.54 3.79 0.54 3.79 12.46 3.79 12.46 3.79 12.46 3.79 12.46 1.62 12.46 1.62ZM 12.46 4.33C 12.46 4.33 0.54 4.33 0.54 4.33 0.54 4.33 0.54 12.46 0.54 12.46 0.54 12.46 12.46 12.46 12.46 12.46 12.46 12.46 12.46 4.33 12.46 4.33ZM 3.25 8.67C 3.25 8.67 2.17 8.67 2.17 8.67 2.17 8.67 2.17 7.58 2.17 7.58 2.17 7.58 3.25 7.58 3.25 7.58 3.25 7.58 3.25 8.67 3.25 8.67ZM 3.25 10.56C 3.25 10.56 2.17 10.56 2.17 10.56 2.17 10.56 2.17 9.48 2.17 9.48 2.17 9.48 3.25 9.48 3.25 9.48 3.25 9.48 3.25 10.56 3.25 10.56ZM 5.15 6.77C 5.15 6.77 4.06 6.77 4.06 6.77 4.06 6.77 4.06 5.69 4.06 5.69 4.06 5.69 5.15 5.69 5.15 5.69 5.15 5.69 5.15 6.77 5.15 6.77ZM 5.15 8.67C 5.15 8.67 4.06 8.67 4.06 8.67 4.06 8.67 4.06 7.58 4.06 7.58 4.06 7.58 5.15 7.58 5.15 7.58 5.15 7.58 5.15 8.67 5.15 8.67ZM 5.15 10.56C 5.15 10.56 4.06 10.56 4.06 10.56 4.06 10.56 4.06 9.48 4.06 9.48 4.06 9.48 5.15 9.48 5.15 9.48 5.15 9.48 5.15 10.56 5.15 10.56ZM 7.04 6.77C 7.04 6.77 5.96 6.77 5.96 6.77 5.96 6.77 5.96 5.69 5.96 5.69 5.96 5.69 7.04 5.69 7.04 5.69 7.04 5.69 7.04 6.77 7.04 6.77ZM 7.04 8.67C 7.04 8.67 5.96 8.67 5.96 8.67 5.96 8.67 5.96 7.58 5.96 7.58 5.96 7.58 7.04 7.58 7.04 7.58 7.04 7.58 7.04 8.67 7.04 8.67ZM 7.04 10.56C 7.04 10.56 5.96 10.56 5.96 10.56 5.96 10.56 5.96 9.48 5.96 9.48 5.96 9.48 7.04 9.48 7.04 9.48 7.04 9.48 7.04 10.56 7.04 10.56ZM 8.94 6.77C 8.94 6.77 7.85 6.77 7.85 6.77 7.85 6.77 7.85 5.69 7.85 5.69 7.85 5.69 8.94 5.69 8.94 5.69 8.94 5.69 8.94 6.77 8.94 6.77ZM 8.94 8.67C 8.94 8.67 7.85 8.67 7.85 8.67 7.85 8.67 7.85 7.58 7.85 7.58 7.85 7.58 8.94 7.58 8.94 7.58 8.94 7.58 8.94 8.67 8.94 8.67ZM 8.94 10.56C 8.94 10.56 7.85 10.56 7.85 10.56 7.85 10.56 7.85 9.48 7.85 9.48 7.85 9.48 8.94 9.48 8.94 9.48 8.94 9.48 8.94 10.56 8.94 10.56ZM 10.83 6.77C 10.83 6.77 9.75 6.77 9.75 6.77 9.75 6.77 9.75 5.69 9.75 5.69 9.75 5.69 10.83 5.69 10.83 5.69 10.83 5.69 10.83 6.77 10.83 6.77ZM 10.83 8.67C 10.83 8.67 9.75 8.67 9.75 8.67 9.75 8.67 9.75 7.58 9.75 7.58 9.75 7.58 10.83 7.58 10.83 7.58 10.83 7.58 10.83 8.67 10.83 8.67Z" fill="rgb(255,255,255)" filter="url(#filter0)"/></svg>