<svg xmlns="http://www.w3.org/2000/svg" width="77.1" height="77" viewBox="0 0 77.1 77">
  <defs>
    <style>
      .cls-1 {
        fill-rule: evenodd;
      }
    </style>
  </defs>
  <path id="Engineering" class="cls-1" d="M1581.9,3760.7a10.78,10.78,0,1,0,10.8,10.78A10.793,10.793,0,0,0,1581.9,3760.7Zm0,18.48a7.7,7.7,0,1,1,7.71-7.7A7.718,7.718,0,0,1,1581.9,3779.18Zm37.26-13.91-8.23-1.34a29.73,29.73,0,0,0-3.19-7.64l4.81-6.84a1.534,1.534,0,0,0-.17-1.97l-6.54-6.54a1.548,1.548,0,0,0-1.99-.16l-6.78,4.87a29.679,29.679,0,0,0-7.65-3.17l-1.45-8.23a1.545,1.545,0,0,0-1.52-1.27h-9.25a1.545,1.545,0,0,0-1.52,1.29l-1.34,8.22a29.873,29.873,0,0,0-7.58,3.15l-6.81-4.87a1.56,1.56,0,0,0-1.99.17l-6.55,6.53a1.546,1.546,0,0,0-.17,1.97l4.81,6.86a29.913,29.913,0,0,0-3.17,7.6l-8.24,1.37a1.545,1.545,0,0,0-1.29,1.52v9.24a1.526,1.526,0,0,0,1.28,1.51l8.24,1.46a29.5,29.5,0,0,0,3.15,7.6l-4.87,6.8a1.523,1.523,0,0,0,.17,1.98l6.54,6.53a1.546,1.546,0,0,0,1.97.18l6.87-4.8a29.305,29.305,0,0,0,7.61,3.16l1.37,8.24a1.545,1.545,0,0,0,1.52,1.29h9.25a1.545,1.545,0,0,0,1.52-1.27l1.46-8.24a29.16,29.16,0,0,0,7.68-3.19l6.86,4.81a1.548,1.548,0,0,0,1.98-.18l6.54-6.53a1.534,1.534,0,0,0,.16-1.98l-4.88-6.78a29.754,29.754,0,0,0,3.17-7.63l8.24-1.44a1.545,1.545,0,0,0,1.27-1.52v-9.24A1.538,1.538,0,0,0,1619.16,3765.27Zm-1.79,9.47-7.96,1.39a1.526,1.526,0,0,0-1.24,1.18,26.743,26.743,0,0,1-3.55,8.56,1.523,1.523,0,0,0,.05,1.72l4.71,6.54-4.7,4.69-6.63-4.64a1.524,1.524,0,0,0-1.71-.03,26.778,26.778,0,0,1-8.58,3.56,1.539,1.539,0,0,0-1.19,1.23l-1.41,7.96h-6.65l-1.33-7.96a1.538,1.538,0,0,0-1.18-1.25,26.379,26.379,0,0,1-8.53-3.54,1.543,1.543,0,0,0-1.71.04l-6.64,4.63-4.7-4.69,4.7-6.57a1.522,1.522,0,0,0,.05-1.72,26.528,26.528,0,0,1-3.53-8.51,1.552,1.552,0,0,0-1.24-1.18l-7.96-1.41v-6.65l7.95-1.32a1.525,1.525,0,0,0,1.25-1.18,26.759,26.759,0,0,1,3.55-8.52,1.542,1.542,0,0,0-.03-1.71l-4.65-6.62,4.71-4.7,6.57,4.69a1.539,1.539,0,0,0,1.73.05,26.506,26.506,0,0,1,8.51-3.52,1.55,1.55,0,0,0,1.18-1.26l1.3-7.94h6.65l1.39,7.95a1.539,1.539,0,0,0,1.19,1.23,26.913,26.913,0,0,1,8.57,3.56,1.558,1.558,0,0,0,1.73-.05l6.54-4.7,4.7,4.69-4.64,6.61a1.54,1.54,0,0,0-.04,1.72,26.307,26.307,0,0,1,3.56,8.55,1.55,1.55,0,0,0,1.26,1.18l7.95,1.3v6.64Zm-35.47-24.82a21.56,21.56,0,1,0,21.59,21.56A21.6,21.6,0,0,0,1581.9,3749.92Zm0,40.04a18.48,18.48,0,1,1,18.51-18.48A18.511,18.511,0,0,1,1581.9,3789.96Z" transform="translate(-1543.34 -3732.97)"/>
</svg>
