<svg version="1.1" xmlns="http://www.w3.org/2000/svg" xmlns:xlink="http://www.w3.org/1999/xlink" x="0px" y="0px" viewBox="0 0 48 48" width="48" height="48">
<path d="M24.359,38.877c-1.69,0-3.061,1.371-3.061,3.061c0,1.69,1.371,3.062,3.061,3.062c1.69,0,3.062-1.371,3.062-3.062
C27.421,40.248,26.05,38.877,24.359,38.877z M24.359,43c-0.586,0-1.061-0.477-1.061-1.062c0-0.585,0.476-1.061,1.061-1.061
c0.585,0,1.062,0.477,1.062,1.061C25.421,42.523,24.945,43,24.359,43z M9,0v48h30V0H9z M37,46H11V2h26V46z M27,4h-6v2h6V4z"/>
</svg>
