<svg xmlns="http://www.w3.org/2000/svg" width="73" height="73" viewBox="0 0 73 73">
  <defs>
    <style>
      .cls-1 {
        fill-rule: evenodd;
      }
    </style>
  </defs>
  <path id="Office_Lamp" data-name="Office Lamp" class="cls-1" d="M1613,3373.57a7.319,7.319,0,0,0-5.98-7.18l-14.51-16.79a7.92,7.92,0,0,0,.05-0.85,7.3,7.3,0,0,0-13.13-4.39l-13.52,1.24a8.009,8.009,0,0,0-7.29-5.58,2.11,2.11,0,0,0-.71,0,8,8,0,0,0-7.69,8v7.28a22.39,22.39,0,0,0-10.22,18.44,1.491,1.491,0,0,0,.36.97c0.43,0.48,4.52,4.7,17.89,4.7,13.51,0,17.49-4.24,17.9-4.72a1.449,1.449,0,0,0,.35-0.95,22.39,22.39,0,0,0-10.22-18.44v-0.93l13.17-1.2a7.3,7.3,0,0,0,5.81,2.88,7.62,7.62,0,0,0,1.18-.09l12.6,14.62a7.316,7.316,0,0,0,.34,6.65l-15.8,24.09h-10.21a7.2,7.2,0,0,0-7.09,7.3v2.92a1.455,1.455,0,0,0,1.46,1.46h39.42a1.455,1.455,0,0,0,1.46-1.46v-2.92a7.2,7.2,0,0,0-7.09-7.3h-7.51l13.45-20.66A7.326,7.326,0,0,0,1613,3373.57Zm-59.86-25.55a5.094,5.094,0,0,1,4.92-5.08,0.247,0.247,0,0,0,.14-0.03c0.05,0.01.22,0.02,0.27,0.03a5.076,5.076,0,0,1,4.84,4.37c0,0.03.01,0.07,0.01,0.1a4.077,4.077,0,0,1,.04.61v7.79a54.52,54.52,0,0,1-10.22,0v-7.79Zm20.43,25.08c-1.18.91-5.33,3.39-15.32,3.39s-14.14-2.49-15.32-3.39a19.864,19.864,0,0,1,7.83-14.65,54.2,54.2,0,0,0,14.98,0A19.864,19.864,0,0,1,1573.57,3373.1Zm-7.29-21.66v-2.94l11.8-1.08a7.311,7.311,0,0,0-.12,1.33,7.159,7.159,0,0,0,.18,1.61Zm18.98,1.69a4.395,4.395,0,0,1-3.78-2.17,0.405,0.405,0,0,1-.05-0.09,4.345,4.345,0,0,1-.55-2.12,4.39,4.39,0,0,1,.6-2.22c0.02-.02.03-0.04,0.04-0.05a4.376,4.376,0,0,1,8.12,2.27,4.431,4.431,0,0,1-.09.9l-0.03.12A4.385,4.385,0,0,1,1585.26,3353.13Zm4.05,1.69a7.289,7.289,0,0,0,2.06-2.08l12.02,13.91a7.2,7.2,0,0,0-2.58,1.51Zm12.22,49.42a4.28,4.28,0,0,1,4.17,4.38v1.46h-36.5v-1.46a4.28,4.28,0,0,1,4.17-4.38h28.16Zm-11-2.92h-3.46l14.34-21.85a7.218,7.218,0,0,0,2.57,1.2Zm15.82-23.41a4.632,4.632,0,0,1-.65.04,4.38,4.38,0,0,1,0-8.76c0.12,0,.25.01,0.37,0.02,0.04,0,.09.01,0.13,0.01a4.381,4.381,0,0,1,.18,8.68A0.037,0.037,0,0,0,1606.35,3377.91Z" transform="translate(-1540 -3340)"/>
</svg>
