<svg xmlns="http://www.w3.org/2000/svg" xmlns:xlink="http://www.w3.org/1999/xlink" width="47" height="35" viewBox="0 0 47 35">
  <path id="eye" class="cls-1" d="M1496.5,5048c-15.67,0-23.5-17.5-23.5-17.5s7.83-17.5,23.5-17.5c16.65,0,23.5,17.5,23.5,17.5S1512.17,5048,1496.5,5048Zm0-33.06c-12.4,0-19.62,12.28-21.32,15.56,1.71,3.26,8.96,15.55,21.32,15.55,12.46,0,19.68-12.39,21.34-15.59C1516.34,5027.26,1509.69,5014.94,1496.5,5014.94Zm0,21.39a5.86,5.86,0,0,1-5.88-5.83,5.94,5.94,0,0,1,.17-1.35,2.5,2.5,0,0,0,1.3.38,2.437,2.437,0,0,0,2.45-2.43,2.4,2.4,0,0,0-.77-1.76A5.841,5.841,0,1,1,1496.5,5036.33Zm0-9.72h-0.03a3.908,3.908,0,0,1,.03.49,4.387,4.387,0,0,1-3.8,4.33A3.913,3.913,0,1,0,1496.5,5026.61Z" transform="translate(-1473 -5013)"/>
</svg>
