<svg xmlns="http://www.w3.org/2000/svg" width="30.955" height="55.906" viewBox="0 0 593 1071"><path fill="#fff" d="M277.5 0c4.272.533 12.147 0 18 0 18.171 0 33.708-.706 49 3 4.559 1.105 8.02-.151 12.5 1 24.218 6.224 46.825 9.742 68.5 18 26.142 9.96 51.478 22.909 73 38 8.813 6.18 16.965 13.667 25.5 20 14.7 10.908 31.006 25.451 42 40 3.262 4.317 10.788 8.063 12 14-3.544 2.358-6.436 6.106-9 9.5l-7 6.5c-3.169 3.169-5.844 6.815-9 10-8.526 8.6-18.159 16.783-25.5 26.5-3.865 5.115-9.537 8.755-13.5 14-4.006 5.3-9.9 9.069-14 14.5l-6 5.5-13 14-9 8.5c-5.932 7.849-13.561 15.061-20.5 22l-7.5 7c-4.1 5.431-9.993 9.2-14 14.5-8.2 10.851-18.96 19.842-28 30-8.579 9.641-19.158 17.622-27 28l-7.5 7c-6.938 6.938-14.569 14.151-20.5 22l-8.5 8c-6.072 6.072-12 12.368-18 18.5-11.548 11.793-22.331 24.33-34 36-5.583 5.584-10.917 11.417-16.5 17-2.692 2.692-6.632 5.078-8 9h.5c2.088 1.714 5.317 1.859 8 3 7.644 3.252 15.971 5.476 24 9 20.621 9.05 43.792 15.681 64 25 3.931 1.813 7.641 2.086 11.5 4 21.61 10.716 43.357 20.516 64 32 14.044 7.813 27.257 17.831 40 27 52.916 38.072 90.426 84.309 111 155 4.158 14.288 3.485 30.2 7 45.5v12c1.853 6.373 1.708 20.109 0 26.5v6.5l-1 17.5c-3.542 15-4.628 30.746-9 44-2.02 6.123-2.473 11.705-5 17.5-24.022 55.1-54.7 99.89-101 132.5a275.784 275.784 0 0 1-34 20c-5.042 2.54-9.854 3.5-15 6-18.257 8.86-39.761 13.3-61.5 19-11.291 2.96-23.587 2.37-35 5H323c-5.222 1.16-14.513.52-19.5 2-2.077.62-7.753.26-9-.5-4.592-1.63-14.437-14.15-18.5-18v-60a18.462 18.462 0 0 1 5.5-.5c4.488-2.649 20.057.47 26.5-1 6.538-1.492 14.62-.329 21.5-2 13.646-3.313 28.174-3.659 41-8 12.136-4.107 24.915-7.457 36-13 35.782-17.893 64.642-43.245 83.5-78 8.831-16.275 13.364-34.8 19-54.5 1.616-5.647.641-10.562 2-16.5 6.331-27.664.357-66.329-7-87.5-2.574-7.408-3.31-13.874-6-21-6.883-18.234-15.36-34.854-26-49.5-2.685-3.7-7.319-7.225-11-10l-5.5-6c-4.816-3.641-9.1-7.38-14-11-7.875-5.819-15.508-12.692-24-18-19.019-11.887-39.678-21.825-60-32-15.24-7.631-32.1-11.06-48-18-26.556-11.594-55.3-20.664-82-32-6.835-2.9-13.617-5.266-20-8-1.718-.736-6.119-2.626-7-2-3.693 2.463-5.951 6.386-9 9.5-6.563 6.7-13.8 12.957-19.5 20.5l-11 10.5c-9.342 12.359-22.162 21.642-31.5 34l-10.5 10c-5.4 7.145-12.217 13.207-18.5 19.5l-6 7H19c-2.812-5.354-4.19-11.306-7-17-1.887-3.823-4.744-8.235-5.5-13 2.151-1.524 3.643-4.142 5.5-6 4.625-4.626 9.506-8.714 13.5-14 4.85-6.419 12.052-10.951 17-17.5l13-12.5c2.015-2.015 3.529-4.43 5.5-6.5 5.31-5.579 11.3-10.28 16-16.5 4.85-6.419 12.052-10.951 17-17.5l8.5-8 13-14c2.61-2.611 7.636-5.4 8.5-9.5-4.052-1.286-7.688-4.792-11-7-9.174-6.117-17.332-12.5-26-19-2.909-2.183-5.111-5.815-8-8-11.25-8.506-20.633-20.087-29-31.5-5.234-7.14-11.232-14.346-16-22-9.608-15.423-16.385-33.237-23-51.5-3.327-9.185-4.536-19.377-7-29l-1-10c-.715-3.115-1.295-8.383-2-11.5v-9c-1.332-4.726-2.4-22.206-1-30 3.057-17.044 2.971-38.051 8-54.5 18.978-62.07 50.494-105.255 97.5-139 31.4-22.541 64.354-36.368 105-50 14.7-4.931 31.242-5.277 47-9 5.166-1.221 16.618.581 20-2zM290 79c-4.157 2.437-20.9.556-27 2-14.944 3.535-30.433 4.088-44 9-23.518 8.515-44.466 17.717-63 31-8.569 6.141-15.7 14.086-24 20.5l-2.5 3.5a173.041 173.041 0 0 0-16 19c-15.027 20.96-22.746 39.283-30.5 68-1.8 6.65-1.5 14.027-3 20.5v9.5c-2.327 10.852-.291 26.9 2 36 .852 3.383-.043 5.684 1 9 2.915 9.275 4.818 19.557 9 28 11.846 23.917 26.61 45.638 47 61 2.611 1.967 4.842 5.047 7.5 7 6.828 5.016 13.838 9.246 21 14 3.711 2.463 7.994 6.665 13 7.5 2.606-3.943 7.206-6.3 10-10 4.809-6.362 11.789-10.768 16.5-17s10.69-10.921 16-16.5c1.971-2.07 3.485-4.485 5.5-6.5l12.5-12c4.553-6.024 10.278-10.667 15.5-16 3.473-3.547 6.492-7.492 10-11l8.5-8c4.949-6.548 12.149-11.081 17-17.5 5.492-7.266 13.048-14.524 19.5-21 4.94-4.959 10.23-9.349 14.5-15 4.85-6.419 12.052-10.951 17-17.5 4.85-6.419 12.052-10.951 17-17.5 4.85-6.419 12.052-10.951 17-17.5l8.5-8c3.351-3.351 6.226-7.061 9.5-10.5 5.151-5.412 10.939-9.963 15.5-16l16-15.5c7.889-8.289 15.412-16.912 23.5-25 4.662-4.662 10.318-8.917 14-14.5-5.627-3.14-10.632-7.641-16-11-9.341-5.845-19.639-11.037-29.5-16-33.488-16.853-78.508-25.9-128.5-26z"/></svg>